<svg width="221" height="46" viewBox="0 0 221 46" fill="none" xmlns="http://www.w3.org/2000/svg">
<g clip-path="url(#clip0_237_246)">
<path d="M10.2646 20.7035C12.4135 21.0383 14.3403 22.9721 14.661 25.1058C15.1069 27.3867 15.5538 29.6676 15.9995 31.9487C16.1454 32.6678 16.1065 33.4248 15.7693 34.0417C15.3932 34.7865 14.5931 35.2845 13.7187 35.2763C13.5159 35.2726 13.3134 35.2597 13.1093 35.2379C10.6402 34.9344 8.17351 34.6208 5.70487 34.3242C3.36231 34.0694 1.22909 31.8891 1.02544 29.5647C0.755784 27.4972 0.485559 25.4292 0.210408 23.3615C0.139869 22.7692 0.0302908 22.1757 0.0196137 21.5835C0.00599258 20.5818 0.674135 19.6925 1.59382 19.3816C2.1735 19.1677 2.83291 19.1935 3.46266 19.3207C5.73017 19.7819 7.9972 20.2445 10.2646 20.7035Z" fill="#295BFF"/>
<path d="M34.7467 23.993C36.8955 24.3278 38.8224 26.2616 39.1431 28.3953C39.5889 30.6762 40.0358 32.9573 40.4817 35.2382C40.6275 35.9572 40.5887 36.7143 40.2513 37.3312C39.8754 38.076 39.075 38.574 38.2009 38.566C37.9981 38.5621 37.7956 38.5492 37.5912 38.5274C35.1224 38.2239 32.6556 37.9105 30.1869 37.6136C27.8445 37.3589 25.7112 35.1786 25.5075 32.8542C25.2378 30.7867 24.9677 28.7187 24.6926 26.651C24.6219 26.0587 24.5124 25.4652 24.5018 24.873C24.4881 23.8713 25.1562 22.9819 26.0759 22.671C26.6557 22.4574 27.3149 22.4829 27.9448 22.6102C30.2123 23.0714 32.4794 23.5341 34.7467 23.993Z" fill="#295BFF"/>
<path d="M6.91187 9.8825C6.82131 11.3966 7.15746 12.938 7.36003 14.4643C8.0322 19.2386 8.72393 24.0115 9.39723 28.7846C9.93303 32.8565 13.1015 36.6375 16.9356 38.3514C18.6074 39.1108 20.3921 39.2082 22.1321 39.4616C26.1992 39.9895 30.2633 40.5514 34.3294 41.0853C35.7177 41.2473 37.1141 41.5307 38.4931 41.4786C38.257 42.5093 37.9094 43.5237 37.2178 44.3068C36.024 45.7391 33.9956 46.2936 32.0353 45.9919C26.4453 45.244 20.8545 44.484 15.2652 43.7484C10.1658 43.1124 5.46675 38.4448 4.779 33.3875C4.07373 28.3661 3.33885 23.3429 2.63848 18.3217C2.35782 16.5357 1.96066 14.6088 2.71024 13.0003C3.38219 11.2642 5.06448 10.1768 6.91303 9.88135L6.91187 9.8825Z" fill="#295BFF"/>
<path d="M15.1708 15.83C17.3196 16.1649 19.2466 18.0988 19.5673 20.2326C20.013 22.5135 20.4599 24.7944 20.9059 27.0753C21.0517 27.7943 21.0128 28.5515 20.6754 29.1683C20.2996 29.913 19.4992 30.4112 18.625 30.403C18.4223 30.3993 18.2197 30.3863 18.0154 30.3645C15.5465 30.0612 13.0798 29.7475 10.6111 29.4507C8.26858 29.1959 6.13536 27.0156 5.93169 24.6912C5.66205 22.6238 5.39181 20.5557 5.11666 18.4881C5.04614 17.8959 4.93656 17.3022 4.92586 16.7101C4.91226 15.7084 5.58038 14.819 6.50007 14.5081C7.07977 14.2945 7.73916 14.3202 8.36893 14.4475C10.6364 14.9085 12.9035 15.3712 15.1708 15.83Z" fill="#7487FF"/>
<path d="M39.6528 19.1194C41.8018 19.4543 43.7286 21.388 44.0493 23.5218C44.495 25.8027 44.9419 28.0838 45.3878 30.3647C45.5337 31.0837 45.4948 31.8408 45.1576 32.4577C44.7815 33.2024 43.9814 33.7006 43.107 33.6925C42.9042 33.6888 42.7017 33.6757 42.4976 33.6539C40.0285 33.3506 37.5618 33.037 35.0931 32.7401C32.7506 32.4853 30.6173 30.305 30.4138 27.9807C30.1441 25.9132 29.8739 23.8451 29.5987 21.7775C29.5282 21.1851 29.4185 20.5916 29.4079 19.9995C29.3944 18.9978 30.0625 18.1084 30.982 17.7975C31.5618 17.5839 32.2213 17.6094 32.8509 17.7367C35.1184 18.1979 37.3855 18.6606 39.6528 19.1194Z" fill="#7487FF"/>
<path d="M6.9118 9.88273C7.16493 7.23974 9.48271 5.31098 12.1454 5.27808C12.1849 6.60323 12.4435 7.93635 12.6159 9.2644C13.2824 13.9017 13.9377 18.5395 14.5919 23.176C15.1046 28.3864 19.9361 33.3194 25.1873 33.9472C30.7218 34.6697 36.2562 35.4315 41.7916 36.1712C42.2481 36.2236 42.7023 36.2575 43.1576 36.2721C43.0344 38.9105 41.1731 41.2029 38.4907 41.481C37.1117 41.5331 35.7153 41.2499 34.3271 41.0879C30.2635 40.554 26.1968 39.9921 22.1297 39.4643C20.3921 39.2109 18.605 39.1134 16.9332 38.3538C13.0991 36.6401 9.93065 32.8592 9.39485 28.7872C8.72037 24.0153 8.0298 19.241 7.35765 14.4668C7.15377 12.9392 6.81762 11.3976 6.90949 9.88505L6.9118 9.88273Z" fill="#7487FF"/>
<path d="M20.077 10.9565C22.2258 11.2914 24.1528 13.2253 24.4733 15.3589C24.9192 17.6398 25.3661 19.9209 25.8118 22.2018C25.9579 22.9208 25.9188 23.6781 25.5816 24.2948C25.2056 25.0395 24.4054 25.5377 23.5312 25.5296C23.3284 25.5259 23.1257 25.5128 22.9216 25.491C20.4527 25.1877 17.986 24.8741 15.5173 24.5772C13.1748 24.3224 11.0415 22.1421 10.8378 19.8178C10.5682 17.7503 10.298 15.6822 10.0228 13.6146C9.95227 13.0222 9.84269 12.4287 9.83199 11.8366C9.81839 10.8349 10.4865 9.9455 11.4062 9.63469C11.9858 9.42096 12.6453 9.44661 13.2751 9.57391C15.5426 10.035 17.8095 10.4977 20.077 10.9565Z" fill="#D9DDFF"/>
<path d="M44.5591 14.246C46.7079 14.5809 48.6349 16.5148 48.9554 18.6484C49.4013 20.9295 49.8482 23.2104 50.294 25.4913C50.4398 26.2103 50.4009 26.9676 50.0637 27.5843C49.6877 28.329 48.8875 28.8272 48.0133 28.8191C47.8106 28.8154 47.6078 28.8023 47.4037 28.7805C44.9348 28.4772 42.4681 28.1636 39.9994 27.8667C37.6567 27.612 35.5235 25.4316 35.3199 23.1073C35.0503 21.0398 34.78 18.9717 34.5048 16.9041C34.4344 16.3119 34.3248 15.7182 34.314 15.1261C34.3005 14.1244 34.9686 13.235 35.8883 12.9241C36.4679 12.7105 37.1274 12.7362 37.7572 12.8635C40.0247 13.3245 42.2916 13.7872 44.5591 14.246Z" fill="#D9DDFF"/>
<path d="M35.0701 3.55042C39.8907 4.35191 44.253 8.72893 45.0229 13.515C46.0767 18.6339 47.133 23.7528 48.1868 28.8716C48.5311 30.4855 48.4624 32.1803 47.722 33.5537C46.8981 35.2124 45.1181 36.3088 43.1599 36.2697C42.7058 36.2564 42.2516 36.2225 41.7939 36.1687C36.2573 35.4302 30.7255 34.6686 25.1897 33.9447C19.9373 33.3181 15.1069 28.384 14.5942 23.1737C13.9401 18.537 13.2847 13.8992 12.6182 9.26194C12.4459 7.93389 12.186 6.60191 12.1477 5.27561C12.093 3.0319 13.5675 1.05609 15.6197 0.38209C16.9128 -0.0826468 18.3901 -0.00937873 19.8034 0.290791C24.8929 1.37776 29.9812 2.46833 35.0701 3.55042Z" fill="#D9DDFF"/>
<path d="M36.0609 16.3523C36.9538 16.5513 37.7903 17.5395 37.9695 18.602C38.2032 19.7395 38.4376 20.8771 38.6715 22.0146C38.7473 22.3734 38.7481 22.7481 38.6226 23.0486C38.4841 23.4121 38.1653 23.6468 37.8048 23.6293C37.7212 23.6244 37.6376 23.6148 37.5528 23.6008C36.5288 23.4125 35.5057 23.2192 34.4819 23.0342C33.511 22.872 32.584 21.7585 32.449 20.603C32.2925 19.5741 32.1355 18.5447 31.9767 17.5156C31.9347 17.2208 31.8764 16.925 31.859 16.6312C31.8313 16.1346 32.087 15.7038 32.4592 15.5639C32.6933 15.4668 32.9655 15.4898 33.228 15.5625C34.1724 15.8258 35.1167 16.0899 36.0609 16.3523Z" fill="#295BFF"/>
<path d="M26.5825 14.4493C27.5055 14.6112 28.3417 15.5998 28.4902 16.6998C28.6932 17.8751 28.8965 19.0506 29.0994 20.226C29.1658 20.5965 29.153 20.9875 29.0115 21.3077C28.8541 21.6941 28.5136 21.9554 28.1387 21.9556C28.0518 21.9547 27.9648 21.949 27.8773 21.9389C26.817 21.7948 25.7578 21.6455 24.6977 21.5048C23.692 21.3851 22.7662 20.2704 22.6669 19.0713C22.5405 18.0053 22.4139 16.9389 22.2854 15.8729C22.252 15.5675 22.2019 15.2615 22.1943 14.9558C22.1833 14.4387 22.4651 13.9762 22.8579 13.8111C23.1054 13.6977 23.3882 13.7076 23.6588 13.7702C24.6335 13.9967 25.608 14.2239 26.5825 14.4493Z" fill="#295BFF"/>
<path d="M214.215 33.9153C212.792 33.9153 211.516 33.6676 210.386 33.1721C209.257 32.6558 208.358 31.9642 207.689 31.097C207.039 30.2299 206.684 29.2697 206.621 28.2168H211.045C211.13 28.8775 211.453 29.4247 212.019 29.8582C212.604 30.2918 213.326 30.5086 214.184 30.5086C215.02 30.5086 215.667 30.3435 216.129 30.0131C216.609 29.6827 216.849 29.2594 216.849 28.7432C216.849 28.1858 216.556 27.7729 215.972 27.5045C215.406 27.2155 214.496 26.9058 213.241 26.5754C211.944 26.2657 210.878 25.9456 210.042 25.6152C209.226 25.2851 208.515 24.779 207.909 24.0978C207.322 23.4164 207.029 22.4976 207.029 21.3415C207.029 20.3917 207.302 19.5245 207.846 18.74C208.409 17.9555 209.204 17.336 210.229 16.8817C211.275 16.4275 212.499 16.2004 213.901 16.2004C215.972 16.2004 217.624 16.7166 218.857 17.7488C220.091 18.7607 220.77 20.1336 220.896 21.868H216.692C216.629 21.1866 216.337 20.6498 215.814 20.2574C215.312 19.8446 214.633 19.6382 213.775 19.6382C212.98 19.6382 212.362 19.7826 211.924 20.0717C211.506 20.3607 211.296 20.7634 211.296 21.2795C211.296 21.8577 211.589 22.3015 212.176 22.6112C212.761 22.9003 213.671 23.1997 214.904 23.5094C216.16 23.8191 217.194 24.1391 218.011 24.4693C218.825 24.7997 219.526 25.3158 220.113 26.0179C220.719 26.6994 221.033 27.6077 221.053 28.7432C221.053 29.7344 220.77 30.6222 220.207 31.4068C219.663 32.1913 218.868 32.8107 217.822 33.2649C216.798 33.6986 215.595 33.9153 214.215 33.9153Z" fill="white"/>
<path d="M199.532 33.6364L193.634 26.3275V33.6364H189.242V10.7185H193.634V23.757L199.469 16.479H205.179L197.524 25.0886L205.242 33.6364H199.532Z" fill="white"/>
<path d="M169.238 25.0578C169.238 23.2823 169.604 21.7337 170.336 20.4124C171.068 19.0704 172.083 18.0379 173.38 17.3154C174.677 16.5719 176.162 16.2004 177.835 16.2004C179.989 16.2004 181.768 16.7372 183.169 17.8108C184.59 18.8638 185.542 20.3504 186.023 22.2705H181.287C181.035 21.5273 180.606 20.9492 179.999 20.5361C179.414 20.1026 178.682 19.8859 177.803 19.8859C176.548 19.8859 175.555 20.3401 174.823 21.2486C174.091 22.1364 173.725 23.4061 173.725 25.0578C173.725 26.689 174.091 27.9587 174.823 28.8672C175.555 29.755 176.548 30.1989 177.803 30.1989C179.581 30.1989 180.743 29.4143 181.287 27.8453H186.023C185.542 29.7034 184.59 31.1797 183.169 32.2739C181.746 33.3682 179.968 33.9153 177.835 33.9153C176.162 33.9153 174.677 33.5539 173.38 32.8314C172.083 32.088 171.068 31.0557 170.336 29.7344C169.604 28.3924 169.238 26.8335 169.238 25.0578Z" fill="white"/>
<path d="M147.975 24.996C147.975 23.2616 148.32 21.7234 149.011 20.3814C149.722 19.0394 150.673 18.0069 151.866 17.2844C153.079 16.5616 154.428 16.2004 155.913 16.2004C157.21 16.2004 158.339 16.4585 159.301 16.9746C160.284 17.4908 161.069 18.1412 161.654 18.9257V16.4792H166.078V33.6366H161.654V31.128C161.09 31.9332 160.305 32.6043 159.301 33.1411C158.318 33.6572 157.178 33.9153 155.881 33.9153C154.417 33.9153 153.079 33.5436 151.866 32.8004C150.673 32.0572 149.722 31.0144 149.011 29.6724C148.32 28.3097 147.975 26.7508 147.975 24.996ZM161.654 25.0578C161.654 24.0048 161.445 23.1067 161.027 22.3635C160.608 21.5996 160.044 21.0215 159.333 20.6291C158.621 20.2163 157.858 20.0097 157.042 20.0097C156.227 20.0097 155.474 20.2059 154.783 20.5981C154.093 20.9905 153.528 21.5686 153.089 22.3325C152.671 23.0757 152.462 23.9635 152.462 24.996C152.462 26.0283 152.671 26.9368 153.089 27.7213C153.528 28.4852 154.093 29.0736 154.783 29.4866C155.494 29.8995 156.248 30.1059 157.042 30.1059C157.858 30.1059 158.621 29.9098 159.333 29.5176C160.044 29.1046 160.608 28.5265 161.027 27.7833C161.445 27.0192 161.654 26.1109 161.654 25.0578Z" fill="white"/>
<path d="M142.055 20.0405V28.3406C142.055 28.9187 142.191 29.3418 142.463 29.6102C142.756 29.858 143.237 29.9819 143.906 29.9819H145.946V33.6364H143.185C139.483 33.6364 137.632 31.8607 137.632 28.3096V20.0405H135.561V16.479H137.632V12.2361H142.055V16.479H145.946V20.0405H142.055Z" fill="white"/>
<path d="M125.384 33.8533C123.857 33.8533 122.477 33.5952 121.243 33.0791C120.03 32.5629 119.068 31.8195 118.356 30.8492C117.645 29.8787 117.279 28.7328 117.258 27.4115H121.964C122.027 28.2993 122.341 29.0012 122.906 29.5176C123.491 30.0337 124.286 30.2918 125.29 30.2918C126.315 30.2918 127.12 30.0544 127.706 29.5794C128.291 29.0839 128.584 28.4438 128.584 27.6592C128.584 27.0191 128.385 26.4927 127.988 26.0798C127.591 25.6668 127.089 25.3468 126.482 25.1197C125.897 24.872 125.081 24.6036 124.035 24.3145C122.613 23.9015 121.452 23.499 120.552 23.1066C119.674 22.6938 118.91 22.0847 118.262 21.2795C117.635 20.4536 117.321 19.3594 117.321 17.9965C117.321 16.7165 117.645 15.6016 118.294 14.6518C118.942 13.7021 119.852 12.9794 121.023 12.4839C122.194 11.9678 123.533 11.7097 125.039 11.7097C127.298 11.7097 129.128 12.2568 130.529 13.3511C131.952 14.4247 132.736 15.932 132.882 17.8727H128.051C128.009 17.1293 127.685 16.5204 127.078 16.0454C126.493 15.5499 125.708 15.3022 124.725 15.3022C123.868 15.3022 123.177 15.5189 122.655 15.9526C122.152 16.3861 121.901 17.0159 121.901 17.8418C121.901 18.4199 122.09 18.905 122.466 19.2974C122.864 19.6689 123.345 19.9786 123.909 20.2265C124.495 20.4536 125.311 20.722 126.357 21.0317C127.779 21.4446 128.94 21.8576 129.839 22.2704C130.739 22.6834 131.512 23.3029 132.161 24.1287C132.809 24.9546 133.133 26.0385 133.133 27.3805C133.133 28.5368 132.83 29.6103 132.223 30.6015C131.617 31.5924 130.728 32.3873 129.557 32.9861C128.385 33.5642 126.994 33.8533 125.384 33.8533Z" fill="white"/>
<path d="M110.774 20.0405V28.3406C110.774 28.9187 110.909 29.3418 111.181 29.6102C111.474 29.858 111.955 29.9819 112.625 29.9819H114.664V33.6364H111.903C108.201 33.6364 106.35 31.8607 106.35 28.3096V20.0405H104.279V16.479H106.35V12.2361H110.774V16.479H114.664V20.0405H110.774Z" fill="white"/>
<path d="M93.3708 33.9153C91.6976 33.9153 90.1916 33.5539 88.853 32.8314C87.5145 32.088 86.4582 31.0454 85.6843 29.7034C84.9314 28.3614 84.5549 26.8128 84.5549 25.0578C84.5549 23.303 84.9418 21.7544 85.7157 20.4124C86.5106 19.0704 87.5877 18.0379 88.9473 17.3154C90.3066 16.5719 91.8232 16.2004 93.4964 16.2004C95.1696 16.2004 96.686 16.5719 98.0455 17.3154C99.4051 18.0379 100.472 19.0704 101.246 20.4124C102.04 21.7544 102.438 23.303 102.438 25.0578C102.438 26.8128 102.03 28.3614 101.214 29.7034C100.419 31.0454 99.3319 32.088 97.9515 32.8314C96.592 33.5539 95.065 33.9153 93.3708 33.9153ZM93.3708 30.1369C94.1657 30.1369 94.9082 29.9511 95.5984 29.5794C96.3095 29.1873 96.8742 28.6091 97.2927 27.8453C97.7109 27.0812 97.9201 26.152 97.9201 25.0578C97.9201 23.4267 97.4809 22.1777 96.6024 21.3105C95.7449 20.4227 94.6885 19.9787 93.4336 19.9787C92.1786 19.9787 91.1225 20.4227 90.2648 21.3105C89.4283 22.1777 89.0099 23.4267 89.0099 25.0578C89.0099 26.689 89.4177 27.9484 90.2334 28.8362C91.0701 29.7034 92.1158 30.1369 93.3708 30.1369Z" fill="white"/>
<path d="M77.9167 22.5492C79.1508 22.7763 80.1652 23.3854 80.9601 24.3766C81.7547 25.3675 82.1522 26.5031 82.1522 27.7833C82.1522 28.9395 81.8594 29.9615 81.2737 30.8493C80.709 31.7165 79.8827 32.3977 78.7952 32.8934C77.7075 33.3889 76.4213 33.6366 74.9361 33.6366H65.4928V12.0195H74.5283C76.0135 12.0195 77.2892 12.2569 78.3559 12.7318C79.4437 13.2066 80.2594 13.8673 80.803 14.7138C81.3679 15.5604 81.6501 16.5205 81.6501 17.5941C81.6501 18.8535 81.3051 19.9066 80.6148 20.7531C79.9455 21.5996 79.0462 22.1982 77.9167 22.5492ZM69.8851 20.9389H73.9008C74.9467 20.9389 75.752 20.7118 76.3167 20.2574C76.8814 19.7826 77.1638 19.1115 77.1638 18.2445C77.1638 17.3774 76.8814 16.7063 76.3167 16.2315C75.752 15.7564 74.9467 15.519 73.9008 15.519H69.8851V20.9389ZM74.3087 30.1059C75.3754 30.1059 76.2017 29.8582 76.7873 29.3627C77.3938 28.8672 77.6971 28.1651 77.6971 27.2568C77.6971 26.3277 77.3834 25.6049 76.7559 25.0888C76.1285 24.552 75.2814 24.2836 74.2146 24.2836H69.8851V30.1059H74.3087Z" fill="white"/>
</g>
<defs>
<clipPath id="clip0_237_246">
<rect width="221" height="46" fill="white"/>
</clipPath>
</defs>
</svg>
